<?xml version="1.0" encoding="UTF-8"?>
<svg id="Layer_1" data-name="Layer 1" xmlns="http://www.w3.org/2000/svg" viewBox="0 0 400.82 28.84">
  <defs>
    <style>
      .cls-1 {
        fill: #fff;
      }
    </style>
  </defs>
  <path class="cls-1" d="M37.84,28.84H0V5.57C.83,4.93,7.52,0,18.92,0s18.08,4.93,18.92,5.57v23.27Z"/>
  <path class="cls-1" d="M75.67,28.84h-37.84V5.57c.83-.64,7.52-5.57,18.92-5.57s18.08,4.93,18.92,5.57v23.27Z"/>
  <path class="cls-1" d="M112.63,28.84h-37.84V5.57c.83-.64,7.52-5.57,18.92-5.57s18.08,4.93,18.92,5.57v23.27Z"/>
  <path class="cls-1" d="M150.47,28.84h-37.84V5.57c.83-.64,7.52-5.57,18.92-5.57s18.08,4.93,18.92,5.57v23.27Z"/>
  <path class="cls-1" d="M188.3,28.84h-37.84V5.57c.83-.64,7.52-5.57,18.92-5.57s18.08,4.93,18.92,5.57v23.27Z"/>
  <path class="cls-1" d="M226.14,28.84h-37.84V5.57c.83-.64,7.52-5.57,18.92-5.57s18.08,4.93,18.92,5.57v23.27Z"/>
  <path class="cls-1" d="M263.97,28.84h-37.84V5.57c.83-.64,7.52-5.57,18.92-5.57s18.08,4.93,18.92,5.57v23.27Z"/>
  <path class="cls-1" d="M301.81,28.84h-37.84V5.57c.83-.64,7.52-5.57,18.92-5.57s18.08,4.93,18.92,5.57v23.27Z"/>
  <path class="cls-1" d="M338.77,28.84h-37.84V5.57c.83-.64,7.52-5.57,18.92-5.57s18.08,4.93,18.92,5.57v23.27Z"/>
  <path class="cls-1" d="M376.6,28.84h-37.84V5.57c.83-.64,7.52-5.57,18.92-5.57s18.08,4.93,18.92,5.57v23.27Z"/>
  <path class="cls-1" d="M400.82,28.84h-24.22V5.57c.53-.64,4.81-5.57,12.11-5.57s11.57,4.93,12.11,5.57v23.27Z"/>
</svg>