<?xml version="1.0" encoding="UTF-8"?>
<svg id="Layer_1" xmlns="http://www.w3.org/2000/svg" version="1.1" viewBox="0 0 792 612">
  <!-- Generator: Adobe Illustrator 29.4.0, SVG Export Plug-In . SVG Version: 2.1.0 Build 152)  -->
  <defs>
    <style>
      .st0 {
        fill: #fff;
      }
    </style>
  </defs>
  <path class="st0" d="M233.9,319.99h-37.76v-22.59c.83-.62,7.51-5.41,18.88-5.41s18.05,4.79,18.88,5.41v22.59Z"/>
  <path class="st0" d="M271.66,319.99h-37.76v-22.59c.83-.62,7.51-5.41,18.88-5.41s18.05,4.79,18.88,5.41v22.59Z"/>
  <path class="st0" d="M308.54,319.99h-37.76v-22.59c.83-.62,7.51-5.41,18.88-5.41s18.05,4.79,18.88,5.41v22.59Z"/>
  <path class="st0" d="M346.3,319.99h-37.76v-22.59c.83-.62,7.51-5.41,18.88-5.41s18.05,4.79,18.88,5.41v22.59Z"/>
  <path class="st0" d="M384.06,319.99h-37.76v-22.59c.83-.62,7.51-5.41,18.88-5.41s18.05,4.79,18.88,5.41v22.59Z"/>
  <path class="st0" d="M421.81,319.99h-37.76v-22.59c.83-.62,7.51-5.41,18.88-5.41s18.05,4.79,18.88,5.41v22.59Z"/>
  <path class="st0" d="M459.57,319.99h-37.76v-22.59c.83-.62,7.51-5.41,18.88-5.41s18.05,4.79,18.88,5.41v22.59Z"/>
  <path class="st0" d="M497.33,319.99h-37.76v-22.59c.83-.62,7.51-5.41,18.88-5.41s18.05,4.79,18.88,5.41v22.59Z"/>
  <path class="st0" d="M534.21,319.99h-37.76v-22.59c.83-.62,7.51-5.41,18.88-5.41s18.05,4.79,18.88,5.41v22.59Z"/>
  <path class="st0" d="M571.97,319.99h-37.76v-22.59c.83-.62,7.51-5.41,18.88-5.41s18.05,4.79,18.88,5.41v22.59Z"/>
  <path class="st0" d="M596.14,319.99h-24.17v-22.59c.53-.62,4.8-5.41,12.08-5.41s11.55,4.79,12.08,5.41v22.59Z"/>
</svg>